<svg xmlns="http://www.w3.org/2000/svg" viewBox="0 0 390 844" width="390" height="844" style="background:#fff;font-family:sans-serif">
  <!-- Status bar -->
  <rect x="0" y="0" width="390" height="44" fill="#fff"/>
  <text x="54" y="28" font-size="15" font-weight="600" fill="#000" text-anchor="middle">9:41</text>
  
  <g transform="translate(290, 16)">
    <rect x="0" y="8" width="3" height="4" fill="#000" rx="1"/>
    <rect x="5" y="5" width="3" height="7" fill="#000" rx="1"/>
    <rect x="10" y="2" width="3" height="10" fill="#000" rx="1"/>
    <rect x="15" y="0" width="3" height="12" fill="#000" rx="1"/>
  </g>
  <g transform="translate(315, 14)">
    <path d="M 0 5 A 10 10 0 0 1 16 5 M 3 9 A 6 6 0 0 1 13 9 M 7 13 A 2 2 0 0 1 9 13" fill="none" stroke="#000" stroke-width="2" stroke-linecap="round"/>
  </g>
  <g transform="translate(340, 15)">
    <rect x="0" y="0" width="22" height="11" rx="3.5" fill="none" stroke="#000" stroke-width="1.5"/>
    <rect x="2" y="2" width="15" height="7" rx="1.5" fill="#000"/>
    <path d="M 23 3.5 V 7.5" stroke="#000" stroke-width="1.5" stroke-linecap="round"/>
  </g>

  <!-- Search bar -->
  <rect x="16" y="70" width="358" height="48" rx="24" fill="#F4EFF6"/>
  <g transform="translate(34, 86)">
    <line x1="0" y1="0" x2="16" y2="0" stroke="#333" stroke-width="1.5" stroke-linecap="round"/>
    <line x1="0" y1="5" x2="16" y2="5" stroke="#333" stroke-width="1.5" stroke-linecap="round"/>
    <line x1="0" y1="10" x2="16" y2="10" stroke="#333" stroke-width="1.5" stroke-linecap="round"/>
  </g>
  <text x="68" y="99" font-size="15" fill="#605D64">Hinted search text</text>
  <g transform="translate(332, 85)">
    <circle cx="6" cy="6" r="6" stroke="#333" stroke-width="1.5" fill="none"/>
    <line x1="10" y1="10" x2="16" y2="16" stroke="#333" stroke-width="1.5" stroke-linecap="round"/>
  </g>

  <!-- Title -->
  <text x="195" y="180" font-size="28" font-weight="900" fill="#000" text-anchor="middle" letter-spacing="0.5">匯入連結轉換</text>

  <!-- Rectangles -->
  <rect x="53" y="214" width="284" height="60" fill="#D9D9D9"/>
  <rect x="53" y="294" width="284" height="60" fill="#D9D9D9"/>
  <rect x="53" y="374" width="284" height="60" fill="#D9D9D9"/>
  <rect x="53" y="454" width="284" height="60" fill="#D9D9D9"/>
  <rect x="53" y="534" width="284" height="70" fill="#090909"/>

  <!-- Bottom nav bg -->
  <rect x="0" y="768" width="390" height="76" fill="#F4EFF6"/>

  <!-- Bottom nav icons -->
  <g transform="translate(68, 786)">
    <path d="M 0 -8 C -4 -8 -7 -5 -7 -1 C -7 4 0 10 0 10 C 0 10 7 4 7 -1 C 7 -5 4 -8 0 -8 Z" fill="#49454f"/>
    <circle cx="0" cy="-2" r="2.5" fill="#F4EFF6"/>
    <text x="0" y="24" font-size="11" font-weight="600" fill="#49454f" text-anchor="middle">篩選</text>
  </g>
  <g transform="translate(195, 786)">
    <circle cx="0" cy="0" r="9" fill="none" stroke="#49454f" stroke-width="1.5"/>
    <line x1="0" y1="-4" x2="0" y2="4" stroke="#49454f" stroke-width="1.5" stroke-linecap="round"/>
    <line x1="-4" y1="0" x2="4" y2="0" stroke="#49454f" stroke-width="1.5" stroke-linecap="round"/>
    <text x="0" y="24" font-size="11" font-weight="600" fill="#49454f" text-anchor="middle">匯入 Reels</text>
  </g>
  <g transform="translate(322, 786)">
    <g fill="none" stroke="#49454f" stroke-width="1.5" stroke-linecap="round" stroke-linejoin="round">
      <circle cx="0" cy="-3" r="4.5"/>
      <path d="M -8 10 C -8 5 -4 3 0 3 C 4 3 8 5 8 10"/>
    </g>
    <text x="0" y="24" font-size="11" font-weight="600" fill="#49454f" text-anchor="middle">個人頁面</text>
  </g>
</svg>
