<svg xmlns="http://www.w3.org/2000/svg" viewBox="0 0 390 844" width="390" height="844" style="background:#fff;font-family:sans-serif">
  <!-- Status bar -->
  <rect x="0" y="0" width="390" height="44" fill="#f5f5f5"/>
  <text x="20" y="28" font-size="12" fill="#333">9:41</text>
  <rect x="320" y="14" width="50" height="16" rx="4" fill="#ccc"/>

  <!-- Search bar + filter chips -->
  <rect x="15" y="55" width="280" height="40" rx="20" fill="#ece6f0"/>
  <circle cx="34" cy="75" r="8" stroke="#888" stroke-width="1.5" fill="none"/>
  <line x1="40" y1="81" x2="44" y2="85" stroke="#888" stroke-width="1.5"/>
  <text x="55" y="80" font-size="13" fill="#888">搜尋...  #台中  #餐廳</text>
  <circle cx="355" cy="75" r="16" fill="#e8e8e8"/>
  <rect x="348" y="68" width="14" height="2" fill="#555"/>
  <rect x="348" y="73" width="14" height="2" fill="#555"/>
  <rect x="348" y="78" width="14" height="2" fill="#555"/>

  <!-- Card 1 -->
  <rect x="15" y="110" width="360" height="100" rx="4" fill="#f9f9f9" stroke="#e0e0e0" stroke-width="1"/>
  <!-- Image placeholder -->
  <rect x="25" y="120" width="80" height="80" rx="4" fill="#e0e0e0"/>
  <line x1="25" y1="160" x2="105" y2="160" stroke="#bbb" stroke-width="1"/>
  <line x1="25" y1="120" x2="105" y2="200" stroke="#bbb" stroke-width="1"/>
  <line x1="105" y1="120" x2="25" y2="200" stroke="#bbb" stroke-width="1"/>
  <!-- Card text -->
  <rect x="115" y="125" width="160" height="14" rx="3" fill="#ddd"/>
  <rect x="115" y="148" width="120" height="10" rx="3" fill="#e8e8e8"/>
  <rect x="115" y="164" width="100" height="10" rx="3" fill="#e8e8e8"/>
  <!-- Tags row -->
  <rect x="115" y="182" width="42" height="18" rx="4" fill="#eee"/>
  <text x="124" y="195" font-size="10" fill="#666">#餐廳</text>
  <rect x="163" y="182" width="50" height="18" rx="4" fill="#eee"/>
  <text x="170" y="195" font-size="10" fill="#666">#善化區</text>
  <rect x="219" y="182" width="50" height="18" rx="4" fill="#eee"/>
  <text x="225" y="195" font-size="10" fill="#666">#未造訪</text>
  <!-- Action buttons -->
  <rect x="270" y="155" width="30" height="30" rx="4" fill="#eee"/>
  <rect x="306" y="155" width="30" height="30" rx="4" fill="#eee"/>

  <!-- Card 2 -->
  <rect x="15" y="224" width="360" height="100" rx="4" fill="#f9f9f9" stroke="#e0e0e0" stroke-width="1"/>
  <rect x="25" y="234" width="80" height="80" rx="4" fill="#e0e0e0"/>
  <line x1="25" y1="274" x2="105" y2="274" stroke="#bbb" stroke-width="1"/>
  <line x1="25" y1="234" x2="105" y2="314" stroke="#bbb" stroke-width="1"/>
  <line x1="105" y1="234" x2="25" y2="314" stroke="#bbb" stroke-width="1"/>
  <rect x="115" y="239" width="160" height="14" rx="3" fill="#ddd"/>
  <rect x="115" y="262" width="120" height="10" rx="3" fill="#e8e8e8"/>
  <rect x="115" y="278" width="100" height="10" rx="3" fill="#e8e8e8"/>
  <rect x="115" y="296" width="42" height="18" rx="4" fill="#eee"/>
  <text x="124" y="309" font-size="10" fill="#666">#景點</text>
  <rect x="163" y="296" width="50" height="18" rx="4" fill="#eee"/>
  <text x="170" y="309" font-size="10" fill="#666">#台南市</text>
  <rect x="270" y="269" width="30" height="30" rx="4" fill="#eee"/>
  <rect x="306" y="269" width="30" height="30" rx="4" fill="#eee"/>

  <!-- Card 3 -->
  <rect x="15" y="338" width="360" height="100" rx="4" fill="#f9f9f9" stroke="#e0e0e0" stroke-width="1"/>
  <rect x="25" y="348" width="80" height="80" rx="4" fill="#e0e0e0"/>
  <line x1="25" y1="388" x2="105" y2="388" stroke="#bbb" stroke-width="1"/>
  <line x1="25" y1="348" x2="105" y2="428" stroke="#bbb" stroke-width="1"/>
  <line x1="105" y1="348" x2="25" y2="428" stroke="#bbb" stroke-width="1"/>
  <rect x="115" y="353" width="160" height="14" rx="3" fill="#ddd"/>
  <rect x="115" y="376" width="120" height="10" rx="3" fill="#e8e8e8"/>
  <rect x="115" y="392" width="100" height="10" rx="3" fill="#e8e8e8"/>
  <rect x="115" y="410" width="42" height="18" rx="4" fill="#eee"/>
  <text x="122" y="423" font-size="10" fill="#666">#活動</text>
  <rect x="163" y="410" width="50" height="18" rx="4" fill="#eee"/>
  <text x="170" y="423" font-size="10" fill="#666">#台中市</text>
  <rect x="270" y="383" width="30" height="30" rx="4" fill="#eee"/>
  <rect x="306" y="383" width="30" height="30" rx="4" fill="#eee"/>

  <!-- More cards -->
  <rect x="15" y="452" width="360" height="100" rx="4" fill="#f9f9f9" stroke="#e0e0e0" stroke-width="1"/>
  <rect x="25" y="462" width="80" height="80" rx="4" fill="#e0e0e0"/>
  <line x1="25" y1="502" x2="105" y2="502" stroke="#bbb" stroke-width="1"/>
  <line x1="25" y1="462" x2="105" y2="542" stroke="#bbb" stroke-width="1"/>
  <line x1="105" y1="462" x2="25" y2="542" stroke="#bbb" stroke-width="1"/>
  <rect x="115" y="467" width="160" height="14" rx="3" fill="#ddd"/>
  <rect x="115" y="490" width="120" height="10" rx="3" fill="#e8e8e8"/>
  <rect x="115" y="506" width="100" height="10" rx="3" fill="#e8e8e8"/>
  <rect x="115" y="524" width="42" height="18" rx="4" fill="#eee"/>
  <text x="121" y="537" font-size="10" fill="#666">#餐廳</text>
  <rect x="270" y="497" width="30" height="30" rx="4" fill="#eee"/>
  <rect x="306" y="497" width="30" height="30" rx="4" fill="#eee"/>

  <!-- Card 5 -->
  <rect x="15" y="566" width="360" height="100" rx="4" fill="#f9f9f9" stroke="#e0e0e0" stroke-width="1"/>
  <rect x="25" y="576" width="80" height="80" rx="4" fill="#e0e0e0"/>
  <line x1="25" y1="616" x2="105" y2="616" stroke="#bbb" stroke-width="1"/>
  <line x1="25" y1="576" x2="105" y2="656" stroke="#bbb" stroke-width="1"/>
  <line x1="105" y1="576" x2="25" y2="656" stroke="#bbb" stroke-width="1"/>
  <rect x="115" y="581" width="160" height="14" rx="3" fill="#ddd"/>
  <rect x="115" y="604" width="120" height="10" rx="3" fill="#e8e8e8"/>
  <rect x="115" y="620" width="100" height="10" rx="3" fill="#e8e8e8"/>
  <rect x="115" y="638" width="42" height="18" rx="4" fill="#eee"/>
  <text x="121" y="651" font-size="10" fill="#666">#景點</text>
  <rect x="270" y="611" width="30" height="30" rx="4" fill="#eee"/>
  <rect x="306" y="611" width="30" height="30" rx="4" fill="#eee"/>

  <!-- Bottom nav -->
  <rect x="0" y="768" width="390" height="76" fill="#f3edf7"/>
  <g transform="translate(65,780)">
    <rect x="0" y="0" width="24" height="24" rx="3" fill="#ccc"/>
    <text x="12" y="42" font-size="11" fill="#49454f" text-anchor="middle">篩選</text>
  </g>
  <g transform="translate(183,780)">
    <rect x="0" y="0" width="24" height="24" rx="12" fill="#ccc"/>
    <text x="12" y="42" font-size="11" fill="#49454f" text-anchor="middle">匯入 Reels</text>
  </g>
  <g transform="translate(301,780)">
    <rect x="0" y="0" width="24" height="24" rx="3" fill="#ccc"/>
    <text x="12" y="42" font-size="11" fill="#49454f" text-anchor="middle">個人頁面</text>
  </g>
</svg>
